<svg width="51" height="56" viewBox="0 0 51 56" fill="none" xmlns="http://www.w3.org/2000/svg">
<path d="M25.5 2.20777C26.0862 2.20777 26.5922 1.91487 27.0778 1.63375C27.7024 1.2722 28.3002 0.92619 29.0973 1.01683C33.522 1.51997 36.6194 2.98185 38.6717 5.06896C41.0154 7.45239 41.98 10.6263 41.9915 14.108C42.0136 14.126 42.0339 14.146 42.0524 14.1676C44.7178 15.2598 46.6174 16.9154 47.8927 18.9526C49.3736 21.3184 50 24.1819 50 27.2616C50 28.2862 49.9307 29.2868 49.7837 30.2531C49.7881 30.2793 49.7904 30.3062 49.7903 30.3336C49.7899 30.413 49.7701 30.4877 49.7353 30.5533C49.4237 32.3849 48.8258 34.0873 47.8829 35.5882C46.5954 37.6375 44.6725 39.2997 41.9687 40.3892C41.9729 40.483 41.9767 40.5799 41.9799 40.6798C41.9879 40.9289 41.9919 41.1454 41.9919 41.33C41.9919 44.7548 41.2189 47.8987 39.2403 50.3403C37.2634 52.7797 34.1019 54.4933 29.3322 55.0494C28.5088 55.1454 27.858 54.7066 27.1841 54.2521C26.6577 53.8972 26.1136 53.5303 25.5475 53.5303C24.9592 53.5303 24.3786 53.921 23.8362 54.2858C23.189 54.7212 22.5852 55.1274 21.8788 55.0436C17.453 54.519 14.3598 52.9937 12.3119 50.8158C9.96253 48.3171 9.00813 44.9843 9.00813 41.33C9.00813 41.1454 9.01209 40.9289 9.0201 40.6798C9.02166 40.6313 9.02335 40.5835 9.02516 40.5365C9.02054 40.5321 9.016 40.5276 9.01153 40.523C8.95812 40.4681 8.92073 40.4036 8.89918 40.3352C6.26474 39.2452 4.38355 37.6039 3.11713 35.5882C1.62912 33.2198 1 30.3496 1 27.2616C1 24.1819 1.62636 21.3184 3.10734 18.9526C4.39229 16.9 6.31088 15.2346 9.00825 14.1427C9.01346 10.6439 9.97863 7.45398 12.335 5.06207C14.3916 2.97443 17.4951 1.51355 21.9285 1.01393C22.7125 0.925571 23.3127 1.27252 23.9383 1.63421C24.4247 1.91538 24.9304 2.20777 25.5 2.20777ZM16.9116 32.1681C17.0994 31.9855 17.3997 31.9897 17.5823 32.1774C17.7649 32.3652 17.7608 32.6655 17.573 32.8481L13.631 36.6763C13.6106 36.7099 13.5857 36.7414 13.5563 36.77L9.9897 40.2337C9.97979 40.4006 9.97241 40.5592 9.96759 40.7095C9.96206 40.8814 9.95932 41.0886 9.95932 41.33C9.95932 44.7556 10.8386 47.8636 13.0031 50.1656C13.862 51.079 14.9262 51.8695 16.2217 52.5073L19.5789 49.2102C19.7656 49.0266 20.0659 49.0291 20.2495 49.2158C20.4332 49.4025 20.4307 49.7028 20.244 49.8865L17.1525 52.9226C18.5289 53.4779 20.1332 53.8797 21.9903 54.0999C22.3506 54.1426 22.813 53.8315 23.3085 53.4981C23.8314 53.1464 24.3834 52.7751 25.0244 52.6361V37.2917L19.9598 42.4863L19.9523 42.4937C19.9063 42.539 19.8997 42.5456 19.8998 42.5457C19.9478 42.5944 20.0095 42.6542 20.0811 42.7235C20.1486 42.7889 20.2248 42.8628 20.3155 42.9528L22.745 45.2882C22.9338 45.4698 22.9396 45.7701 22.758 45.9589C22.5764 46.1476 22.2762 46.1535 22.0874 45.9719L19.6579 43.6365L19.6523 43.6309C19.5696 43.5488 19.49 43.4717 19.4197 43.4035C19.3456 43.3317 19.2816 43.2697 19.2236 43.2108L19.2206 43.2078L16.4937 45.924C16.308 46.1087 16.0077 46.1079 15.823 45.9222C15.6384 45.7365 15.6392 45.4362 15.8249 45.2515L19.3128 41.7771C19.3343 41.7557 19.3574 41.7368 19.3816 41.7204L25.0244 35.9329V28.249L20.96 32.133C20.7702 32.3136 20.4699 32.3061 20.2893 32.1163C20.1087 31.9265 20.1162 31.6262 20.306 31.4457L24.8811 27.0737L22.1179 24.3999C21.9302 24.2173 21.926 23.917 22.1086 23.7292C22.2913 23.5415 22.5915 23.5373 22.7793 23.72L25.7542 26.5985L28.0601 26.5896C28.1446 26.3108 28.2968 26.0614 28.4976 25.8606C28.8143 25.544 29.2517 25.3481 29.7348 25.3481C30.2179 25.3481 30.6553 25.544 30.972 25.8606C31.2886 26.1773 31.4845 26.6147 31.4845 27.0978C31.4845 27.5809 31.2886 28.0183 30.972 28.335C30.6553 28.6516 30.2179 28.8475 29.7348 28.8475C29.2517 28.8475 28.8143 28.6516 28.4976 28.335C28.2804 28.1178 28.1201 27.8438 28.0408 27.5371L25.9756 27.5452V39.6166L32.842 39.6271C32.9242 39.3346 33.0805 39.073 33.2895 38.8641C33.6061 38.5474 34.0436 38.3516 34.5266 38.3516C35.0098 38.3516 35.4472 38.5474 35.7638 38.8641C36.0805 39.1807 36.2763 39.6182 36.2763 40.1013C36.2763 40.5844 36.0805 41.0218 35.7638 41.3384C35.4472 41.6551 35.0098 41.8509 34.5266 41.8509C34.0436 41.8509 33.6061 41.6551 33.2895 41.3384C33.0803 41.1293 32.9239 40.8675 32.8418 40.5746L25.9756 40.5641V52.6172C26.6329 52.7345 27.1816 53.1045 27.7154 53.4644C28.2411 53.8189 28.7486 54.1611 29.2245 54.1056C29.7105 54.0489 30.1784 53.9798 30.629 53.8988V49.6561C30.3418 49.573 30.0849 49.4182 29.8791 49.2124C29.5624 48.8958 29.3666 48.4584 29.3666 47.9753C29.3666 47.4922 29.5624 47.0547 29.8791 46.7381C30.1957 46.4214 30.6332 46.2256 31.1163 46.2256C31.5994 46.2256 32.0368 46.4214 32.3534 46.7381C32.6701 47.0547 32.8659 47.4922 32.8659 47.9753C32.8659 48.4584 32.6701 48.8958 32.3534 49.2124C32.1421 49.4238 31.8769 49.5813 31.5802 49.6627V53.7045C34.7843 52.9669 37.0193 51.5749 38.5046 49.7421C40.3282 47.4917 41.0407 44.5521 41.0407 41.33C41.0407 41.0886 41.0379 40.8814 41.0324 40.7095C41.0284 40.5832 41.0225 40.4511 41.0148 40.3131L35.3325 34.3617C35.098 34.4785 34.8334 34.5442 34.5536 34.5442C34.0705 34.5442 33.6331 34.3484 33.3164 34.0317C32.9998 33.7151 32.8039 33.2777 32.8039 32.7945C32.8039 32.3115 32.9998 31.874 33.3164 31.5574C33.6331 31.2407 34.0705 31.0449 34.5536 31.0449C35.0367 31.0449 35.4741 31.2407 35.7908 31.5574C36.1074 31.874 36.3033 32.3115 36.3033 32.7945C36.3033 33.1362 36.2053 33.455 36.0359 33.7245L41.5742 39.5251C44.101 38.5154 45.8901 36.9772 47.0803 35.0828C47.883 33.8051 48.4169 32.3603 48.7237 30.802L43.8511 30.7735C43.7718 31.0798 43.6115 31.3536 43.3945 31.5706C43.0778 31.8872 42.6404 32.0831 42.1573 32.0831C41.6742 32.0831 41.2368 31.8872 40.9201 31.5706C40.6035 31.254 40.4076 30.8165 40.4076 30.3334C40.4076 29.8503 40.6035 29.4129 40.9201 29.0963C41.2368 28.7796 41.6742 28.5837 42.1573 28.5837C42.6404 28.5837 43.0778 28.7796 43.3945 29.0963C43.5954 29.2972 43.7477 29.5468 43.8322 29.8259L48.8806 29.8554C48.9947 29.0165 49.0488 28.1494 49.0488 27.2616C49.0488 25.6246 48.8652 24.0574 48.4604 22.6085H41.1467C41.0635 22.8958 40.9088 23.1526 40.703 23.3584C40.3863 23.6751 39.9489 23.8709 39.4658 23.8709C38.9827 23.8709 38.5453 23.6751 38.2286 23.3584C37.912 23.0418 37.7161 22.6044 37.7161 22.1213C37.7161 21.6382 37.912 21.2007 38.2286 20.8841C38.5453 20.5675 38.9827 20.3716 39.4658 20.3716C39.9489 20.3716 40.3863 20.5675 40.703 20.8841C40.9144 21.0955 41.0719 21.3607 41.1533 21.6573H48.1561C47.8743 20.88 47.5212 20.1429 47.0901 19.4542C45.8825 17.5252 44.0532 15.9639 41.4552 14.952H33.9112C33.828 15.2392 33.6733 15.4961 33.4675 15.7019C33.1508 16.0186 32.7134 16.2144 32.2303 16.2144C31.7472 16.2144 31.3098 16.0186 30.9931 15.7019C30.6765 15.3853 30.4806 14.9478 30.4806 14.4648C30.4806 13.9816 30.6765 13.5442 30.9931 13.2276C31.3098 12.9109 31.7472 12.7151 32.2303 12.7151C32.7134 12.7151 33.1508 12.9109 33.4675 13.2276C33.6788 13.439 33.8364 13.7041 33.9178 14.0008H41.0398C41.0095 10.7978 40.1204 7.89507 37.9955 5.73406C36.7074 4.42414 34.9594 3.37794 32.667 2.69051V6.62636C32.9543 6.7095 33.2111 6.86427 33.4169 7.07008C33.7336 7.38673 33.9294 7.82414 33.9294 8.30726C33.9294 8.79034 33.7336 9.22777 33.4169 9.54443C33.1003 9.86107 32.6629 10.0569 32.1798 10.0569C31.6967 10.0569 31.2592 9.86107 30.9426 9.54443C30.6259 9.22777 30.4301 8.79034 30.4301 8.30726C30.4301 7.82414 30.6259 7.38673 30.9426 7.07008C31.154 6.85873 31.4191 6.70121 31.7158 6.61981V2.43362C30.8754 2.23054 29.9691 2.07157 28.9932 1.9606C28.5035 1.90492 28.0389 2.17387 27.5534 2.45489C27.0763 2.73108 26.5832 3.01649 25.9756 3.11917V14.8895L31.3551 20.5238C31.6126 20.3748 31.9115 20.2894 32.2303 20.2894C32.7134 20.2894 33.1508 20.4853 33.4675 20.8019C33.7841 21.1186 33.98 21.556 33.98 22.0391C33.98 22.5222 33.7841 22.9596 33.4675 23.2763C33.1508 23.5929 32.7134 23.7888 32.2303 23.7888C31.7472 23.7888 31.3098 23.5929 30.9931 23.2763C30.6765 22.9596 30.4806 22.5222 30.4806 22.0391C30.4806 21.7366 30.5574 21.452 30.6926 21.2038L25.5075 15.7731L19.4774 21.6975C19.2907 21.8812 18.9904 21.8787 18.8067 21.6919C18.6231 21.5052 18.6256 21.2049 18.8123 21.0213L25.0244 14.918V3.11786C24.4292 3.01412 23.9384 2.73038 23.4627 2.45535C22.9759 2.17394 22.509 1.90401 22.0325 1.9577C21.2678 2.04389 20.5458 2.15959 19.8646 2.30277L19.8669 10.0108L22.5919 13.3419C22.7581 13.545 22.7282 13.8445 22.5251 14.0107C22.3219 14.1769 22.0224 14.147 21.8562 13.9438L19.3932 10.933L16.9301 13.9438C16.7639 14.147 16.4644 14.1769 16.2613 14.0107C16.0581 13.8445 16.0282 13.545 16.1944 13.3419L18.9194 10.0109L18.9171 2.52623C16.3388 3.20432 14.4059 4.31144 13.0112 5.72716C10.8438 7.92735 9.95932 10.8976 9.95932 14.1712C9.95932 14.3709 9.9572 14.2077 9.95805 14.3148V14.3166C9.95817 14.3326 9.95834 14.3494 9.95854 14.367L13.3045 17.6174C13.4923 17.8 13.4964 18.1003 13.3138 18.2881C13.1312 18.4758 12.8309 18.48 12.6431 18.2974L9.30012 15.0498C6.83151 16.0632 5.07922 17.5863 3.90991 19.4542C2.53338 21.6531 1.95119 24.3466 1.95119 27.2616C1.95119 28.6572 2.08485 30.002 2.37531 31.2662L14.2409 19.6066C14.4276 19.423 14.7279 19.4255 14.9115 19.6122C15.0952 19.7989 15.0927 20.0992 14.906 20.2829L10.2537 24.8543L13.9524 28.4463C14.1402 28.6289 14.1443 28.9292 13.9617 29.117C13.7791 29.3047 13.4788 29.3089 13.291 29.1263L9.57697 25.5193L2.65928 32.3169C2.96795 33.3027 3.3839 34.23 3.9197 35.0828C5.1023 36.9651 6.87635 38.4958 9.37776 39.5057L12.5697 36.4058L8.90629 32.8481C8.71853 32.6655 8.71438 32.3652 8.89701 32.1774C9.07964 31.9897 9.37992 31.9855 9.56768 32.1681L13.2396 35.7341L16.9116 32.1681ZM29.7348 26.2993C29.5143 26.2993 29.3146 26.3887 29.1702 26.5332C29.0257 26.6776 28.9363 26.8773 28.9363 27.0978C28.9363 27.3183 29.0257 27.518 29.1702 27.6625C29.3146 27.8069 29.5143 27.8963 29.7348 27.8963C29.9554 27.8963 30.155 27.8069 30.2995 27.6625C30.4439 27.518 30.5333 27.3183 30.5333 27.0978C30.5333 26.8773 30.4439 26.6776 30.2995 26.5332C30.155 26.3887 29.9554 26.2993 29.7348 26.2993ZM42.722 29.7688C42.5775 29.6243 42.3779 29.5349 42.1573 29.5349C41.9368 29.5349 41.7371 29.6243 41.5927 29.7688C41.4482 29.9132 41.3588 30.1129 41.3588 30.3334C41.3588 30.554 41.4482 30.7536 41.5927 30.8981C41.7371 31.0425 41.9368 31.1319 42.1573 31.1319C42.3779 31.1319 42.5775 31.0425 42.722 30.8981C42.8664 30.7536 42.9558 30.554 42.9558 30.3334C42.9558 30.1129 42.8664 29.9132 42.722 29.7688ZM31.6809 48.5399C31.8254 48.3954 31.9147 48.1958 31.9147 47.9753C31.9147 47.7547 31.8254 47.5551 31.6809 47.4106C31.5364 47.2661 31.3368 47.1768 31.1163 47.1768C30.8957 47.1768 30.6961 47.2661 30.5516 47.4106C30.4071 47.5551 30.3178 47.7547 30.3178 47.9753C30.3178 48.1958 30.4071 48.3954 30.5516 48.5399C30.6961 48.6844 30.8957 48.7737 31.1163 48.7737C31.3368 48.7737 31.5364 48.6844 31.6809 48.5399ZM33.962 40.6659C34.1065 40.8104 34.3061 40.8997 34.5266 40.8997C34.7472 40.8997 34.9468 40.8104 35.0913 40.6659C35.2358 40.5215 35.3251 40.3218 35.3251 40.1013C35.3251 39.8807 35.2358 39.6811 35.0913 39.5366C34.9468 39.3921 34.7472 39.3028 34.5266 39.3028C34.3061 39.3028 34.1065 39.3921 33.962 39.5366C33.8175 39.6811 33.7282 39.8807 33.7282 40.1013C33.7282 40.3218 33.8175 40.5215 33.962 40.6659ZM40.0305 21.5566C39.886 21.4122 39.6864 21.3228 39.4658 21.3228C39.2453 21.3228 39.0456 21.4122 38.9012 21.5566C38.7567 21.7011 38.6673 21.9007 38.6673 22.1213C38.6673 22.3418 38.7567 22.5415 38.9012 22.6859C39.0456 22.8304 39.2453 22.9198 39.4658 22.9198C39.6864 22.9198 39.886 22.8304 40.0305 22.6859C40.1749 22.5415 40.2643 22.3418 40.2643 22.1213C40.2643 21.9007 40.1749 21.7011 40.0305 21.5566ZM35.1183 32.2299C34.9738 32.0854 34.7742 31.9961 34.5536 31.9961C34.3331 31.9961 34.1334 32.0854 33.989 32.2299C33.8445 32.3744 33.7551 32.574 33.7551 32.7945C33.7551 33.0151 33.8445 33.2147 33.989 33.3592C34.1334 33.5037 34.3331 33.593 34.5536 33.593C34.7742 33.593 34.9738 33.5037 35.1183 33.3592C35.2627 33.2147 35.3521 33.0151 35.3521 32.7945C35.3521 32.574 35.2627 32.3744 35.1183 32.2299ZM32.795 21.4745C32.6505 21.33 32.4508 21.2406 32.2303 21.2406C32.0098 21.2406 31.8101 21.33 31.6657 21.4745C31.5212 21.6189 31.4318 21.8186 31.4318 22.0391C31.4318 22.2596 31.5212 22.4593 31.6657 22.6038C31.8101 22.7482 32.0098 22.8376 32.2303 22.8376C32.4508 22.8376 32.6505 22.7482 32.795 22.6038C32.9394 22.4593 33.0288 22.2596 33.0288 22.0391C33.0288 21.8186 32.9394 21.6189 32.795 21.4745ZM31.6151 7.7426C31.4706 7.88707 31.3813 8.08671 31.3813 8.30726C31.3813 8.52779 31.4706 8.72743 31.6151 8.87191C31.7596 9.01637 31.9592 9.10574 32.1798 9.10574C32.4003 9.10574 32.6 9.01637 32.7444 8.87191C32.8889 8.72743 32.9782 8.52779 32.9782 8.30726C32.9782 8.08671 32.8889 7.88707 32.7444 7.7426C32.6 7.59814 32.4003 7.50878 32.1798 7.50878C31.9592 7.50878 31.7596 7.59814 31.6151 7.7426ZM32.795 13.9001C32.6505 13.7556 32.4508 13.6663 32.2303 13.6663C32.0098 13.6663 31.8101 13.7556 31.6657 13.9001C31.5212 14.0446 31.4318 14.2442 31.4318 14.4648C31.4318 14.6853 31.5212 14.8849 31.6657 15.0294C31.8101 15.1739 32.0098 15.2632 32.2303 15.2632C32.4508 15.2632 32.6505 15.1739 32.795 15.0294C32.9394 14.8849 33.0288 14.6853 33.0288 14.4648C33.0288 14.2442 32.9394 14.0446 32.795 13.9001Z" fill="black" stroke="black"/>
</svg>
