<svg width="94" height="104" viewBox="0 0 94 104" fill="none" xmlns="http://www.w3.org/2000/svg">
<path d="M46.8337 3.28667C47.9303 3.28667 48.8769 2.73213 49.7854 2.19988C50.9538 1.51535 52.0722 0.860255 53.5633 1.03186C61.8409 1.98447 67.6355 4.75224 71.4748 8.70377C75.8593 13.2163 77.6639 19.2255 77.6854 25.8175C77.7266 25.8516 77.7647 25.8893 77.7993 25.9303C82.7857 27.9982 86.3393 31.1327 88.725 34.9897C91.4956 39.4688 92.6674 44.8904 92.6674 50.7212C92.6674 52.6611 92.5376 54.5554 92.2628 56.3849C92.271 56.4345 92.2752 56.4854 92.275 56.5374C92.2744 56.6877 92.2373 56.8291 92.1722 56.9533C91.5893 60.4211 90.4707 63.6442 88.7067 66.4858C86.2981 70.3658 82.7008 73.5129 77.6426 75.5756C77.6506 75.7533 77.6576 75.9367 77.6636 76.1258C77.6786 76.5975 77.686 77.0073 77.686 77.3568C77.686 83.841 76.2399 89.7934 72.5385 94.416C68.8403 99.0346 62.9258 102.279 54.0028 103.332C52.4624 103.513 51.245 102.683 49.9842 101.822C48.9995 101.15 47.9816 100.456 46.9226 100.456C45.8219 100.456 44.7357 101.195 43.721 101.886C42.5104 102.71 41.3808 103.479 40.0592 103.321C31.7797 102.328 25.993 99.4398 22.162 95.3163C17.7668 90.5856 15.9813 84.2755 15.9813 77.3568C15.9813 77.0073 15.9887 76.5975 16.0037 76.1258C16.0066 76.034 16.0098 75.9435 16.0132 75.8544C16.0045 75.8462 15.996 75.8377 15.9877 75.829C15.8878 75.7251 15.8178 75.6029 15.7775 75.4734C10.8491 73.4096 7.32982 70.3022 4.96065 66.4858C2.17693 62.0017 1 56.5677 1 50.7212C1 44.8904 2.17177 39.4688 4.94232 34.9897C7.34617 31.1034 10.9354 27.9505 15.9815 25.8832C15.9913 19.2589 17.7969 13.2193 22.205 8.69072C26.0525 4.7382 31.8585 1.97231 40.1522 1.02637C41.619 0.859084 42.7417 1.51596 43.9121 2.20075C44.822 2.7331 45.7681 3.28667 46.8337 3.28667ZM30.7669 60.0107C31.1181 59.6649 31.6799 59.6728 32.0215 60.0283C32.3632 60.3838 32.3554 60.9523 32.0042 61.2981L24.6297 68.5461C24.5915 68.6095 24.5449 68.6692 24.4898 68.7234L17.8176 75.2812C17.799 75.5972 17.7853 75.8974 17.7762 76.182C17.7659 76.5076 17.7608 76.8999 17.7608 77.3568C17.7608 83.8426 19.4057 89.7269 23.4549 94.0852C25.0617 95.8147 27.0527 97.3114 29.4761 98.5189L35.7566 92.2765C36.106 91.9288 36.6677 91.9335 37.0113 92.287C37.3549 92.6406 37.3502 93.2091 37.0009 93.5568L31.2175 99.3052C33.7924 100.356 36.7937 101.117 40.2678 101.534C40.9418 101.615 41.8069 101.026 42.734 100.395C43.712 99.7289 44.7447 99.0259 45.9439 98.7627V69.7112L36.4692 79.546L36.4553 79.5601C36.3693 79.6459 36.3568 79.6584 36.3571 79.6586C36.4468 79.7507 36.5623 79.8641 36.6961 79.9952C36.8224 80.1191 36.965 80.2589 37.1347 80.4294L41.6798 84.8509C42.0329 85.1947 42.0438 85.7632 41.7041 86.1207C41.3644 86.4781 40.8026 86.4891 40.4494 86.1453L35.9045 81.7237L35.894 81.7132C35.7393 81.5576 35.5904 81.4117 35.4588 81.2826C35.3202 81.1467 35.2006 81.0294 35.092 80.9178L35.0863 80.912L29.985 86.0548C29.6376 86.4044 29.0759 86.4029 28.7304 86.0513C28.3849 85.6997 28.3864 85.1312 28.7339 84.7815L35.2589 78.2034C35.2992 78.1629 35.3423 78.1271 35.3877 78.096L45.9439 67.1386V52.5906L38.3404 59.9443C37.9853 60.2861 37.4235 60.272 37.0857 59.9126C36.7479 59.5532 36.7619 58.9847 37.117 58.6428L45.6759 50.3653L40.5066 45.3031C40.1553 44.9573 40.1476 44.3888 40.4892 44.0333C40.8309 43.6778 41.3926 43.67 41.7439 44.0157L47.3092 49.4657L51.6231 49.4488C51.7812 48.921 52.0659 48.4489 52.4415 48.0687C53.0339 47.4692 53.8523 47.0984 54.756 47.0984C55.6598 47.0984 56.4781 47.4692 57.0705 48.0687C57.6628 48.6682 58.0292 49.4964 58.0292 50.411C58.0292 51.3257 57.6628 52.1539 57.0705 52.7534C56.4781 53.3529 55.6598 53.7237 54.756 53.7237C53.8523 53.7237 53.0339 53.3529 52.4415 52.7534C52.0352 52.3421 51.7353 51.8233 51.5869 51.2428L47.7234 51.258V74.1129L60.5688 74.1328C60.7226 73.579 61.015 73.0838 61.4059 72.6881C61.9983 72.0886 62.8166 71.7178 63.7204 71.7178C64.6242 71.7178 65.4425 72.0886 66.0348 72.6881C66.6272 73.2877 66.9936 74.1158 66.9936 75.0305C66.9936 75.9452 66.6272 76.7733 66.0348 77.3728C65.4425 77.9723 64.6242 78.3431 63.7204 78.3431C62.8166 78.3431 61.9983 77.9723 61.4059 77.3728C61.0147 76.9769 60.7221 76.4812 60.5684 75.9267L47.7234 75.9067V98.727C48.9531 98.9491 49.9796 99.6495 50.9782 100.331C51.9615 101.002 52.911 101.65 53.8013 101.545C54.7105 101.438 55.5859 101.307 56.4288 101.153V93.1207C55.8915 92.9633 55.411 92.6703 55.0259 92.2807C54.4335 91.6812 54.0671 90.853 54.0671 89.9383C54.0671 89.0237 54.4335 88.1955 55.0259 87.596C55.6183 86.9965 56.4366 86.6257 57.3404 86.6257C58.2441 86.6257 59.0624 86.9965 59.6548 87.596C60.2472 88.1955 60.6136 89.0237 60.6136 89.9383C60.6136 90.853 60.2472 91.6812 59.6548 92.2807C59.2594 92.6808 58.7633 92.9791 58.2083 93.1332V100.785C64.2025 99.389 68.3835 96.7536 71.1621 93.2834C74.5737 89.0229 75.9066 83.4572 75.9066 77.3568C75.9066 76.8999 75.9015 76.5076 75.8911 76.182C75.8835 75.9429 75.8726 75.6928 75.8583 75.4316L65.228 64.1637C64.7892 64.3849 64.2943 64.5093 63.7708 64.5093C62.8671 64.5093 62.0488 64.1385 61.4564 63.539C60.864 62.9395 60.4976 62.1113 60.4976 61.1967C60.4976 60.282 60.864 59.4538 61.4564 58.8543C62.0488 58.2548 62.8671 57.884 63.7708 57.884C64.6746 57.884 65.4929 58.2548 66.0853 58.8543C66.6776 59.4538 67.044 60.282 67.044 61.1967C67.044 61.8436 66.8607 62.4472 66.5438 62.9573L76.9047 73.9396C81.6317 72.028 84.9788 69.1157 87.2053 65.5291C88.707 63.11 89.7057 60.3746 90.2797 57.4243L81.1643 57.3702C81.0158 57.9502 80.716 58.4685 80.31 58.8794C79.7176 59.4789 78.8993 59.8497 77.9956 59.8497C77.0918 59.8497 76.2735 59.4789 75.6811 58.8794C75.0887 58.2799 74.7223 57.4517 74.7223 56.537C74.7223 55.6224 75.0887 54.7942 75.6811 54.1947C76.2735 53.5952 77.0918 53.2244 77.9956 53.2244C78.8993 53.2244 79.7176 53.5952 80.31 54.1947C80.6859 54.5752 80.9708 55.0477 81.1288 55.5761L90.5732 55.6321C90.7866 54.0437 90.8879 52.4019 90.8879 50.7212C90.8879 47.6218 90.5444 44.6547 89.7871 41.9114H76.1049C75.9494 42.4553 75.6599 42.9416 75.2748 43.3313C74.6825 43.9308 73.8642 44.3016 72.9604 44.3016C72.0567 44.3016 71.2383 43.9308 70.6459 43.3313C70.0536 42.7318 69.6872 41.9036 69.6872 40.9889C69.6872 40.0743 70.0536 39.2461 70.6459 38.6466C71.2383 38.0471 72.0567 37.6763 72.9604 37.6763C73.8642 37.6763 74.6825 38.0471 75.2748 38.6466C75.6703 39.0468 75.9649 39.5489 76.1172 40.1105H89.2179C88.6908 38.6389 88.0301 37.2432 87.2236 35.9394C84.9645 32.2872 81.5423 29.3311 76.6821 27.4153H62.569C62.4135 27.9592 62.124 28.4455 61.7389 28.8352C61.1466 29.4347 60.3283 29.8055 59.4245 29.8055C58.5207 29.8055 57.7024 29.4347 57.11 28.8352C56.5177 28.2357 56.1513 27.4075 56.1513 26.4928C56.1513 25.5782 56.5177 24.75 57.11 24.1505C57.7024 23.551 58.5207 23.1802 59.4245 23.1802C60.3283 23.1802 61.1466 23.551 61.7389 24.1505C62.1343 24.5507 62.429 25.0528 62.5813 25.6144H75.905C75.8483 19.5501 74.1851 14.0544 70.2097 9.96301C67.8 7.48292 64.5301 5.50216 60.2414 4.20065V11.6524C60.7788 11.8098 61.2593 12.1028 61.6444 12.4925C62.2367 13.092 62.6031 13.9202 62.6031 14.8348C62.6031 15.7495 62.2367 16.5777 61.6444 17.1772C61.052 17.7767 60.2337 18.1475 59.3299 18.1475C58.4262 18.1475 57.6079 17.7767 57.0155 17.1772C56.4231 16.5777 56.0567 15.7495 56.0567 14.8348C56.0567 13.9202 56.4231 13.092 57.0155 12.4925C57.4109 12.0923 57.907 11.7941 58.462 11.64V3.71427C56.8898 3.32978 55.1942 3.02881 53.3687 2.81871C52.4526 2.71329 51.5833 3.22249 50.6752 3.75455C49.7826 4.27746 48.86 4.81782 47.7234 5.01223V27.297L57.7872 37.9645C58.2688 37.6823 58.828 37.5207 59.4245 37.5207C60.3283 37.5207 61.1466 37.8916 61.7389 38.4911C62.3313 39.0906 62.6977 39.9187 62.6977 40.8334C62.6977 41.748 62.3313 42.5762 61.7389 43.1757C61.1466 43.7752 60.3283 44.1461 59.4245 44.1461C58.5207 44.1461 57.7024 43.7752 57.11 43.1757C56.5177 42.5762 56.1513 41.748 56.1513 40.8334C56.1513 40.2607 56.2949 39.7219 56.5478 39.2519L46.8477 28.9699L35.5668 40.1866C35.2175 40.5343 34.6557 40.5296 34.3122 40.1761C33.9686 39.8225 33.9733 39.254 34.3226 38.9063L45.9439 27.351V5.00975C44.8306 4.81334 43.9123 4.27613 43.0224 3.75542C42.1117 3.22263 41.2382 2.71156 40.3469 2.81322C38.9162 2.9764 37.5655 3.19546 36.2911 3.46654L36.2954 18.0602L41.3934 24.3669C41.7043 24.7515 41.6483 25.3185 41.2683 25.6332C40.8882 25.9478 40.328 25.8912 40.0171 25.5065L35.4093 19.8062L30.8014 25.5065C30.4905 25.8912 29.9303 25.9478 29.5502 25.6332C29.1702 25.3185 29.1142 24.7515 29.4251 24.3669L34.5229 18.0604L34.5187 3.88961C29.6952 5.17345 26.0793 7.26956 23.4701 9.94995C19.4153 14.1156 17.7608 19.7391 17.7608 25.937C17.7608 26.3151 17.7568 26.0062 17.7584 26.2089V26.2124C17.7586 26.2427 17.7589 26.2745 17.7593 26.3077L24.0188 32.4618C24.3701 32.8075 24.3778 33.3761 24.0362 33.7315C23.6945 34.087 23.1328 34.0949 22.7815 33.7491L16.5276 27.6006C11.9094 29.5191 8.63125 32.4029 6.44374 35.9394C3.8686 40.1026 2.77946 45.2021 2.77946 50.7212C2.77946 53.3634 3.02949 55.9095 3.57287 58.303L25.7705 36.228C26.1198 35.8802 26.6816 35.885 27.0252 36.2385C27.3688 36.5921 27.3641 37.1606 27.0148 37.5083L18.3116 46.1634L25.2309 52.9641C25.5822 53.3099 25.5899 53.8784 25.2483 54.2339C24.9066 54.5894 24.3449 54.5973 23.9936 54.2515L17.0455 47.4225L4.10411 60.2924C4.68157 62.1588 5.4597 63.9145 6.46207 65.5291C8.67443 69.0929 11.9932 71.9909 16.6728 73.9029L22.6442 68.0339L15.7908 61.2981C15.4395 60.9523 15.4318 60.3838 15.7734 60.0283C16.1151 59.6728 16.6768 59.6649 17.0281 60.0107L23.8975 66.7622L30.7669 60.0107ZM54.756 48.8993C54.3434 48.8993 53.9699 49.0685 53.6997 49.342C53.4294 49.6155 53.2622 49.9935 53.2622 50.411C53.2622 50.8286 53.4294 51.2066 53.6997 51.4801C53.9699 51.7536 54.3434 51.9228 54.756 51.9228C55.1686 51.9228 55.5421 51.7536 55.8123 51.4801C56.0826 51.2066 56.2498 50.8286 56.2498 50.411C56.2498 49.9935 56.0826 49.6155 55.8123 49.342C55.5421 49.0685 55.1686 48.8993 54.756 48.8993ZM79.0519 55.468C78.7816 55.1944 78.4082 55.0253 77.9956 55.0253C77.583 55.0253 77.2095 55.1944 76.9392 55.468C76.669 55.7415 76.5018 56.1195 76.5018 56.537C76.5018 56.9546 76.669 57.3326 76.9392 57.6061C77.2095 57.8796 77.583 58.0488 77.9956 58.0488C78.4082 58.0488 78.7816 57.8796 79.0519 57.6061C79.3221 57.3326 79.4893 56.9546 79.4893 56.537C79.4893 56.1195 79.3221 55.7415 79.0519 55.468ZM58.3967 91.0074C58.6669 90.7339 58.8341 90.3559 58.8341 89.9383C58.8341 89.5208 58.6669 89.1428 58.3967 88.8693C58.1264 88.5957 57.7529 88.4265 57.3404 88.4265C56.9278 88.4265 56.5543 88.5957 56.284 88.8693C56.0138 89.1428 55.8466 89.5208 55.8466 89.9383C55.8466 90.3559 56.0138 90.7339 56.284 91.0074C56.5543 91.2809 56.9278 91.4501 57.3404 91.4501C57.7529 91.4501 58.1264 91.2809 58.3967 91.0074ZM62.664 76.0995C62.9343 76.3731 63.3078 76.5423 63.7204 76.5423C64.133 76.5423 64.5065 76.3731 64.7767 76.0995C65.047 75.826 65.2141 75.448 65.2141 75.0305C65.2141 74.6129 65.047 74.235 64.7767 73.9614C64.5065 73.6879 64.133 73.5187 63.7204 73.5187C63.3078 73.5187 62.9343 73.6879 62.664 73.9614C62.3938 74.235 62.2266 74.6129 62.2266 75.0305C62.2266 75.448 62.3938 75.826 62.664 76.0995ZM74.0167 39.9199C73.7465 39.6464 73.373 39.4772 72.9604 39.4772C72.5478 39.4772 72.1743 39.6464 71.9041 39.9199C71.6338 40.1934 71.4666 40.5714 71.4666 40.9889C71.4666 41.4065 71.6338 41.7845 71.9041 42.058C72.1743 42.3315 72.5478 42.5007 72.9604 42.5007C73.373 42.5007 73.7465 42.3315 74.0167 42.058C74.287 41.7845 74.4542 41.4065 74.4542 40.9889C74.4542 40.5714 74.287 40.1934 74.0167 39.9199ZM64.8272 60.1276C64.5569 59.8541 64.1834 59.6849 63.7708 59.6849C63.3583 59.6849 62.9848 59.8541 62.7145 60.1276C62.4442 60.4011 62.2771 60.7791 62.2771 61.1967C62.2771 61.6142 62.4442 61.9922 62.7145 62.2657C62.9848 62.5392 63.3583 62.7084 63.7708 62.7084C64.1834 62.7084 64.5569 62.5392 64.8272 62.2657C65.0974 61.9922 65.2646 61.6142 65.2646 61.1967C65.2646 60.7791 65.0974 60.4011 64.8272 60.1276ZM60.4808 39.7643C60.2106 39.4908 59.8371 39.3216 59.4245 39.3216C59.0119 39.3216 58.6384 39.4908 58.3681 39.7643C58.0979 40.0378 57.9307 40.4158 57.9307 40.8334C57.9307 41.2509 58.0979 41.6289 58.3681 41.9024C58.6384 42.176 59.0119 42.3452 59.4245 42.3452C59.8371 42.3452 60.2106 42.176 60.4808 41.9024C60.7511 41.6289 60.9182 41.2509 60.9182 40.8334C60.9182 40.4158 60.7511 40.0378 60.4808 39.7643ZM58.2736 13.7658C58.0033 14.0393 57.8362 14.4173 57.8362 14.8348C57.8362 15.2524 58.0033 15.6304 58.2736 15.9039C58.5439 16.1774 58.9174 16.3466 59.3299 16.3466C59.7425 16.3466 60.116 16.1774 60.3863 15.9039C60.6565 15.6304 60.8237 15.2524 60.8237 14.8348C60.8237 14.4173 60.6565 14.0393 60.3863 13.7658C60.116 13.4923 59.7425 13.3231 59.3299 13.3231C58.9174 13.3231 58.5439 13.4923 58.2736 13.7658ZM60.4808 25.4238C60.2106 25.1503 59.8371 24.9811 59.4245 24.9811C59.0119 24.9811 58.6384 25.1503 58.3681 25.4238C58.0979 25.6973 57.9307 26.0753 57.9307 26.4928C57.9307 26.9104 58.0979 27.2884 58.3681 27.5619C58.6384 27.8354 59.0119 28.0046 59.4245 28.0046C59.8371 28.0046 60.2106 27.8354 60.4808 27.5619C60.7511 27.2884 60.9182 26.9104 60.9182 26.4928C60.9182 26.0753 60.7511 25.6973 60.4808 25.4238Z" fill="#FF6058" stroke="#FF6058"/>
</svg>
